<svg width="53" height="48" viewBox="0 0 53 48" fill="none" xmlns="http://www.w3.org/2000/svg">
<path d="M20.9988 22C20.9988 21.6022 21.1577 21.2206 21.4406 20.9393C21.7234 20.658 22.107 20.5 22.507 20.5H30.5508C30.9508 20.5 31.3344 20.658 31.6173 20.9393C31.9001 21.2206 32.059 21.6022 32.059 22C32.059 22.3978 31.9001 22.7794 31.6173 23.0607C31.3344 23.342 30.9508 23.5 30.5508 23.5H22.507C22.107 23.5 21.7234 23.342 21.4406 23.0607C21.1577 22.7794 20.9988 22.3978 20.9988 22ZM52.1684 12V44C52.1684 44.9283 51.7976 45.8185 51.1376 46.4749C50.4777 47.1312 49.5826 47.5 48.6492 47.5H4.40861C3.47527 47.5 2.58016 47.1312 1.9202 46.4749C1.26023 45.8185 0.889465 44.9283 0.889465 44V12C0.889465 11.0717 1.26023 10.1815 1.9202 9.52513C2.58016 8.86875 3.47527 8.5 4.40861 8.5H14.966V6C14.966 4.54131 15.5487 3.14236 16.5857 2.11091C17.6228 1.07946 19.0294 0.5 20.4961 0.5H32.5617C34.0284 0.5 35.435 1.07946 36.4721 2.11091C37.5092 3.14236 38.0918 4.54131 38.0918 6V8.5H48.6492C49.5826 8.5 50.4777 8.86875 51.1376 9.52513C51.7976 10.1815 52.1684 11.0717 52.1684 12ZM17.9824 8.5H35.0754V6C35.0754 5.33696 34.8106 4.70107 34.3392 4.23223C33.8678 3.76339 33.2284 3.5 32.5617 3.5H20.4961C19.8294 3.5 19.1901 3.76339 18.7187 4.23223C18.2473 4.70107 17.9824 5.33696 17.9824 6V8.5ZM3.90587 12V22.6975C10.8316 26.5046 18.6157 28.5011 26.5289 28.5C34.4425 28.5013 42.2268 26.5039 49.152 22.695V12C49.152 11.8674 49.099 11.7402 49.0047 11.6464C48.9104 11.5527 48.7826 11.5 48.6492 11.5H4.40861C4.27527 11.5 4.1474 11.5527 4.05312 11.6464C3.95884 11.7402 3.90587 11.8674 3.90587 12ZM49.152 44V26.0925C42.146 29.6463 34.3935 31.4994 26.5289 31.5C18.6645 31.5008 10.9118 29.6486 3.90587 26.095V44C3.90587 44.1326 3.95884 44.2598 4.05312 44.3536C4.1474 44.4473 4.27527 44.5 4.40861 44.5H48.6492C48.7826 44.5 48.9104 44.4473 49.0047 44.3536C49.099 44.2598 49.152 44.1326 49.152 44Z" fill="black"/>
</svg>
