<svg width="55" height="51" viewBox="0 0 55 51" fill="none" xmlns="http://www.w3.org/2000/svg">
<path d="M23.6875 8.3125C23.6875 6.3068 22.8038 4.38325 21.2308 2.96501C19.6579 1.54676 17.5245 0.75 15.3 0.75C13.0755 0.75 10.9421 1.54676 9.36913 2.96501C7.79617 4.38325 6.91249 6.3068 6.91249 8.3125C6.91249 10.3182 7.79617 12.2418 9.36913 13.66C10.9421 15.0782 13.0755 15.875 15.3 15.875C17.5245 15.875 19.6579 15.0782 21.2308 13.66C22.8038 12.2418 23.6875 10.3182 23.6875 8.3125ZM9.96249 8.3125C9.96249 7.68051 10.1005 7.05472 10.3688 6.47084C10.637 5.88696 11.0302 5.35643 11.5258 4.90955C12.0214 4.46267 12.6098 4.10818 13.2574 3.86633C13.905 3.62448 14.5991 3.5 15.3 3.5C16.0009 3.5 16.695 3.62448 17.3426 3.86633C17.9901 4.10818 18.5785 4.46267 19.0742 4.90955C19.5698 5.35643 19.963 5.88696 20.2312 6.47084C20.4994 7.05472 20.6375 7.68051 20.6375 8.3125C20.6375 9.58885 20.0751 10.8129 19.0742 11.7155C18.0732 12.618 16.7156 13.125 15.3 13.125C13.8844 13.125 12.5268 12.618 11.5258 11.7155C10.5248 10.8129 9.96249 9.58885 9.96249 8.3125ZM4.62499 18.625H17.3831C16.8829 19.4775 16.5108 20.4015 16.2912 21.375H4.62499C4.22053 21.375 3.83264 21.5199 3.54665 21.7777C3.26066 22.0356 3.09999 22.3853 3.09999 22.75V24.125C3.09999 27.59 6.45194 31.3135 12.5428 32.1825C11.5607 32.7875 10.7433 33.5933 10.1607 34.531C3.72524 32.9608 0.0499878 28.4893 0.0499878 24.125V22.75C0.0499878 21.656 0.531996 20.6068 1.38997 19.8332C2.24795 19.0596 3.41162 18.625 4.62499 18.625ZM21.0309 18.625C22.5681 16.9475 24.8953 15.875 27.5 15.875C29.3265 15.8721 31.104 16.4081 32.5611 17.4012C34.0182 18.3942 35.075 19.7898 35.5703 21.375C36.0117 22.7899 35.9869 24.29 35.4987 25.6923C35.0105 27.0947 34.0802 28.3386 32.8212 29.2722C31.5622 30.2059 30.0291 30.7889 28.4088 30.9502C26.7885 31.1115 25.1512 30.844 23.6966 30.1805C22.5767 29.6666 21.5992 28.9323 20.8363 28.032C20.0734 27.1317 19.5446 26.0884 19.2889 24.979C19.0333 23.8697 19.0574 22.7228 19.3595 21.623C19.6615 20.5232 20.2307 19.4986 21.0309 18.625ZM22.681 21.375C22.3806 21.9463 22.2079 22.5654 22.1729 23.1969C22.1378 23.8283 22.2411 24.4599 22.4767 25.0554C22.9526 26.258 23.9389 27.241 25.2186 27.788C26.4983 28.335 27.9666 28.4013 29.3004 27.9722C30.6343 27.5431 31.7245 26.6538 32.3312 25.5C32.9379 24.3458 33.0112 23.0216 32.535 21.8187C32.0588 20.6157 31.0722 19.6326 29.7921 19.0856C28.512 18.5386 27.0433 18.4725 25.7091 18.9019C24.375 19.3312 23.2846 20.2208 22.6779 21.375M44.8392 34.531C44.2583 33.5927 43.4427 32.7896 42.4572 32.1852C48.545 31.3135 51.9 27.5872 51.9 24.125V22.75C51.9 22.3853 51.7393 22.0356 51.4533 21.7777C51.1673 21.5199 50.7794 21.375 50.375 21.375H38.7087C38.4933 20.4162 38.1266 19.4901 37.6199 18.625H50.375C51.5884 18.625 52.752 19.0596 53.61 19.8332C54.468 20.6068 54.95 21.656 54.95 22.75V24.125C54.95 28.4893 51.2717 32.958 44.8392 34.531ZM41.1853 34.7703C40.3529 34.1114 39.2827 33.7486 38.175 33.75H16.825C16.2237 33.7486 15.6281 33.8543 15.0723 34.061C14.5165 34.2678 14.0115 34.5716 13.5864 34.9549C13.1612 35.3383 12.8243 35.7936 12.595 36.2947C12.3656 36.7958 12.2484 37.3329 12.25 37.875V39.25C12.25 44.6702 17.923 50.25 27.5 50.25C37.077 50.25 42.75 44.6702 42.75 39.25V37.875C42.75 36.6375 42.1461 35.5265 41.1853 34.7675M15.3 37.875C15.3 37.5103 15.4607 37.1606 15.7467 36.9027C16.0326 36.6449 16.4205 36.5 16.825 36.5H38.175C38.5794 36.5 38.9673 36.6449 39.2533 36.9027C39.5393 37.1606 39.7 37.5103 39.7 37.875V39.25C39.7 43.2045 35.3324 47.5 27.5 47.5C19.6676 47.5 15.3 43.2045 15.3 39.25V37.875ZM39.7 0.75C41.9245 0.75 44.0579 1.54676 45.6308 2.96501C47.2038 4.38325 48.0875 6.3068 48.0875 8.3125C48.0875 10.3182 47.2038 12.2418 45.6308 13.66C44.0579 15.0782 41.9245 15.875 39.7 15.875C37.4755 15.875 35.3421 15.0782 33.7691 13.66C32.1962 12.2418 31.3125 10.3182 31.3125 8.3125C31.3125 6.3068 32.1962 4.38325 33.7691 2.96501C35.3421 1.54676 37.4755 0.75 39.7 0.75ZM39.7 3.5C38.2844 3.5 36.9268 4.00703 35.9258 4.90955C34.9248 5.81207 34.3625 7.03615 34.3625 8.3125C34.3625 9.58885 34.9248 10.8129 35.9258 11.7155C36.9268 12.618 38.2844 13.125 39.7 13.125C41.1156 13.125 42.4732 12.618 43.4742 11.7155C44.4752 10.8129 45.0375 9.58885 45.0375 8.3125C45.0375 7.03615 44.4752 5.81207 43.4742 4.90955C42.4732 4.00703 41.1156 3.5 39.7 3.5Z" fill="black"/>
</svg>
