<svg width="174" height="32" viewBox="0 0 174 32" fill="none" xmlns="http://www.w3.org/2000/svg">
<g clip-path="url(#clip0_327_1346)">
<path d="M0 0H12.7059C15.1261 0 16.9412 0.605042 18.2857 1.61345C19.7647 2.82353 20.5714 4.57143 20.5714 6.72269C20.5714 9.21008 19.563 10.7563 17.5462 11.6975V11.8319C20.2353 12.7059 21.7815 15.1261 21.7815 18.0168C21.7815 20.7731 20.7059 22.9244 18.958 24.2689C17.479 25.3445 15.5966 25.8151 13.042 25.8151H0V0ZM11.4286 10.084C12.7731 10.084 13.7815 9.34454 13.7815 7.79832C13.7815 6.31933 12.7731 5.57983 11.3613 5.57983H6.9916V10.0168H11.4286V10.084ZM12.0336 20.1008C13.5798 20.1008 14.7227 19.1597 14.7227 17.479C14.7227 15.6639 13.5126 14.8571 12.0336 14.8571H7.05883V20.1681H12.0336V20.1008Z" fill="white"/>
<path d="M22.9248 0H29.5803V25.8823H22.9248V0Z" fill="white"/>
<path d="M30.9248 16.6727C30.9248 10.824 34.6895 6.9248 40.5383 6.9248C46.387 6.9248 50.0845 10.8912 50.0845 16.6727C50.0845 22.5214 46.387 26.4206 40.5383 26.4206C34.6895 26.4206 30.9248 22.5214 30.9248 16.6727ZM43.429 16.6727C43.429 13.4458 42.4206 11.429 40.4038 11.429C38.387 11.429 37.4458 13.4458 37.4458 16.6727C37.4458 19.8996 38.387 21.9836 40.4038 21.9836C42.4206 21.9164 43.429 19.8996 43.429 16.6727Z" fill="white"/>
<path d="M50.8232 16.6727C50.8232 10.824 54.5879 6.9248 60.4367 6.9248C66.2854 6.9248 69.9157 10.824 69.9157 16.6727C69.9157 22.5214 66.2182 26.4206 60.3695 26.4206C54.5879 26.4206 50.8232 22.5214 50.8232 16.6727ZM63.3274 16.6727C63.3274 13.4458 62.319 11.429 60.3022 11.429C58.2854 11.429 57.3442 13.4458 57.3442 16.6727C57.3442 19.8996 58.2854 21.9836 60.3022 21.9836C62.319 21.9164 63.3274 19.8996 63.3274 16.6727Z" fill="white"/>
<path d="M71.2607 7.39524H77.4456V10.1515H77.5801C78.7901 8.00028 80.4708 6.85742 83.1599 6.85742C85.5128 6.85742 87.2607 8.00028 88.1347 10.0171H88.2691C89.7481 7.59692 91.6977 6.85742 93.9834 6.85742C98.2859 6.85742 100.101 10.0171 100.101 14.2524V25.8154H93.6473V15.3952C93.6473 13.5129 93.0422 12.3028 91.4288 12.3028C89.8154 12.3028 89.0086 13.7818 89.0086 15.7986V25.8154H82.5549V15.3952C82.5549 13.5129 81.9498 12.3028 80.3364 12.3028C78.7229 12.3028 77.9162 13.7818 77.9162 15.7986V25.8154H71.2607V7.39524Z" fill="white"/>
<path d="M108.235 23.395H108.168V25.8151H101.983V0H108.437V9.27731H108.572C109.782 7.66387 111.462 6.78992 113.815 6.78992C118.454 6.78992 121.143 10.958 121.143 16.5378C121.143 22.7899 118.252 26.4202 113.412 26.4202C111.395 26.4202 109.311 25.479 108.235 23.395ZM114.488 16.4706C114.488 13.5126 113.412 11.563 111.462 11.563C109.446 11.563 108.235 13.5126 108.235 16.4706C108.235 19.4286 109.513 21.3782 111.462 21.3782C113.412 21.3782 114.488 19.4958 114.488 16.4706Z" fill="white"/>
<path d="M121.883 16.6053C121.883 10.8238 125.715 6.85742 131.227 6.85742C133.984 6.85742 136.068 7.73137 137.681 9.27759C139.832 11.3616 140.774 14.5885 140.706 18.3532H128.337C128.606 20.6389 129.681 21.849 131.631 21.849C132.774 21.849 133.782 21.3112 134.185 20.1011H140.437C139.362 24.3364 136.068 26.4204 131.429 26.4204C125.715 26.3532 121.883 22.4541 121.883 16.6053ZM128.337 14.6557H134.253C134.118 12.4373 132.908 11.2944 131.362 11.2944C129.547 11.2272 128.538 12.5045 128.337 14.6557Z" fill="white"/>
<path d="M148.034 10.5542H148.168C149.513 7.99961 151.26 6.99121 153.479 6.99121C154.017 6.99121 154.353 7.05844 154.555 7.19289V12.84H154.42C150.588 12.1677 148.37 13.9828 148.37 18.1509V25.882H141.849V7.39457H148.034V10.5542Z" fill="white"/>
<path d="M155.227 25.8825H161.479C161.748 26.6892 162.554 27.4287 164.101 27.4287C166.185 27.4287 166.924 26.1514 166.924 24.2018V22.8573H166.79C165.781 24.0673 164.37 24.9413 162.353 24.9413C158.386 24.9413 154.891 21.9833 154.891 16.2018C154.891 10.8909 157.714 6.79004 162.017 6.79004C164.504 6.79004 165.983 7.79844 166.991 9.34466H167.126V7.32785H173.311V23.3278C173.311 26.2858 172.302 28.5715 170.756 29.9161C169.143 31.3278 166.857 31.9329 164.235 31.9329C159.26 32.0001 155.832 29.9833 155.227 25.8825ZM167.193 15.9329C167.193 13.6472 166.118 11.7648 164.235 11.7648C162.42 11.7648 161.277 13.3783 161.277 15.9329C161.277 18.4203 162.42 20.1682 164.235 20.1682C166.05 20.1682 167.193 18.3531 167.193 15.9329Z" fill="white"/>
</g>
<defs>
<clipPath id="clip0_327_1346">
<rect width="173.311" height="32" fill="white"/>
</clipPath>
</defs>
</svg>
