<svg width="1000" height="217" viewBox="0 0 1000 217" fill="none" xmlns="http://www.w3.org/2000/svg">
<g clip-path="url(#clip0_3_14)">
<path d="M215.248 109.123L94.6683 154.963L0 191.831L60.7896 109.123L0 26.411L94.6683 62.289L215.248 109.123Z" fill="white"/>
<path d="M248.632 0.999542H404.589C464.879 0.999542 479.824 26.9109 479.824 50.8278V53.8168C479.824 79.7233 456.902 96.1677 440.957 97.6622C464.374 100.651 490.286 118.59 490.286 151.969V154.958C490.286 183.858 472.847 215.743 405.579 215.743H248.632V0V0.999542ZM314.4 45.8445V83.2121H388.14C405.579 83.2121 411.057 74.74 411.057 64.7782C411.057 54.8116 405.079 45.8445 388.14 45.8445H314.4ZM314.4 126.063V166.924H392.129C412.557 166.924 418.04 156.462 418.04 145.496C418.04 135.035 412.062 126.063 392.129 126.063H314.4Z" fill="white"/>
<path d="M589.437 0.999542L677.628 121.079V0.999542H743.396V216.747H665.667L578.471 98.162V216.747H512.698V0.999542H589.437Z" fill="white"/>
<path d="M836.575 126.562L743.896 0.999542H825.608L871.948 64.2784L918.287 0.999542H1000L907.321 126.562V216.243H836.07V126.562H836.575Z" fill="white"/>
</g>
<defs>
<clipPath id="clip0_3_14">
<rect width="1000" height="217" fill="white"/>
</clipPath>
</defs>
</svg>
