<svg width="924" height="332" viewBox="0 0 924 332" fill="none" xmlns="http://www.w3.org/2000/svg">
<g clip-path="url(#clip0_23_2)">
<path d="M626.931 239.963C626.88 240.014 626.827 240.014 626.827 240.066C587.504 267.894 540.951 297.127 490.86 327.816L488.883 328.96C488.207 329.428 488.051 330.364 488.52 331.04C488.988 331.717 489.924 331.873 490.6 331.405L492.265 330.52C534.761 308.362 583.551 282.043 632.653 255.047C632.913 254.89 633.173 254.734 633.433 254.631C630.728 250.157 628.492 245.268 626.931 239.963ZM884.926 31.1222C822.977 -37.2255 424.281 24.2564 254.764 61.2909L250.811 62.123C249.979 62.279 249.459 63.0595 249.615 63.84C249.771 64.6721 250.551 65.1923 251.332 65.0358L255.232 64.2558C395.673 39.2365 687.789 4.59458 750.623 66.9087C769.816 85.9461 765.239 110.393 742.977 139.313C754.94 147.012 763.471 159.131 767.32 174.267C854.185 116.635 912.494 61.5512 884.926 31.1222Z" fill="white"/>
<path d="M652.003 222.017C652.783 246.048 668.023 265.761 687.841 265.761C726.28 265.761 742.665 218.533 741.52 187.011C740.688 162.928 725.084 143.267 705.266 143.267C672.236 143.215 650.858 190.236 652.003 222.017ZM631.717 220.717C630.312 179.677 662.457 137.701 709.167 137.701C740.376 137.701 760.818 158.507 761.962 190.392C763.471 233.669 733.406 273.408 684.564 273.408C653.251 273.408 632.809 252.654 631.717 220.717ZM189.345 209.898C187.681 210.522 185.548 211.146 182.843 211.718C180.191 212.342 175.301 213.175 168.227 214.319C163.338 215.099 159.956 216.087 158.032 217.492C156.211 218.844 155.119 220.457 154.807 222.486C154.443 224.618 155.119 226.282 156.939 227.635C158.812 228.935 161.933 229.611 166.355 229.611C169.683 229.611 172.908 229.091 176.029 228.051C179.202 227.011 181.907 225.606 183.935 223.837C185.444 222.537 186.536 220.873 187.368 218.844C187.888 217.492 188.564 214.527 189.345 209.898ZM229.917 184.67C229.761 188.416 229.085 191.745 228.096 197.518L221.23 236.061C220.658 239.494 221.906 242.147 225.079 244.019L224.871 245.528L185.548 245.476L185.183 235.697C179.462 239.13 172.544 242.043 166.302 243.76C160.061 245.372 155.015 246.048 147.473 246.048C134.781 246.048 127.499 244.748 122.454 240.326C117.356 235.801 114.86 232.784 115.12 226.543C115.327 222.954 117.2 218.324 119.853 215.099C122.558 211.822 126.303 209.69 130.308 207.765C134.365 205.841 139.151 204.436 146.069 203.344C153.038 202.199 162.714 201.107 175.665 200.015C182.479 199.443 186.64 197.883 188.565 197.102C191.27 196.062 192.362 194.866 192.726 192.681C193.454 188.728 192.206 186.439 186.9 185.399C172.752 182.59 146.173 187.219 132.493 190.6L139.931 170.522C157.98 167.869 174.885 166.205 192.726 166.205C221.178 166.205 230.229 174.267 229.917 184.67ZM343.933 245.476L357.562 168.442H395.221L381.592 245.476H343.933ZM359.642 150.601C360.787 144.255 370.773 139.157 381.904 139.157C393.087 139.157 401.254 144.307 400.162 150.601C398.965 156.947 389.03 162.096 377.795 162.096C366.664 162.096 358.55 156.946 359.642 150.601ZM528.935 210.054C527.219 210.626 525.034 211.25 522.381 211.874C519.729 212.498 514.839 213.278 507.765 214.423C502.928 215.203 499.495 216.192 497.622 217.596C495.802 218.896 494.762 220.561 494.345 222.537C493.929 224.67 494.709 226.386 496.478 227.687C498.402 228.987 501.524 229.611 505.945 229.611C509.221 229.611 512.447 229.143 515.619 228.155C518.844 227.063 521.497 225.71 523.577 223.941C525.034 222.641 526.127 220.925 526.907 218.948C527.427 217.648 528.103 214.683 528.935 210.054ZM569.507 184.775C569.351 188.572 568.674 191.901 567.634 197.622L560.821 236.217C560.248 239.598 561.497 242.303 564.67 244.175L564.462 245.528L525.138 245.58L524.826 235.749C519.104 239.234 512.134 242.147 505.945 243.811C499.703 245.476 494.657 246.152 487.011 246.152C474.319 246.152 467.089 244.904 462.044 240.431C456.894 235.853 454.45 232.888 454.71 226.646C454.866 223.005 456.738 218.376 459.443 215.203C462.148 211.874 465.893 209.794 469.95 207.869C474.007 205.945 478.793 204.54 485.659 203.396C492.629 202.304 502.356 201.159 515.307 200.067C522.069 199.495 526.23 197.986 528.155 197.206C530.912 196.166 531.952 194.969 532.368 192.733C533.044 188.831 531.848 186.543 526.595 185.451C512.342 182.642 485.867 187.271 472.187 190.652L479.573 170.574C497.674 167.922 514.527 166.257 532.368 166.257C560.716 166.309 569.767 174.424 569.507 184.775ZM110.022 217.804C97.7466 220.249 90.8808 221.185 78.7613 221.185C60.7642 221.185 46.4599 212.238 47.2403 195.854C47.8126 184.931 60.7121 161.94 93.5337 161.94C103.885 161.94 111.947 163.76 122.818 169.95L127.603 143.215C112.831 137.649 103.052 136.816 90.3606 136.921C47.292 137.389 5.99206 156.947 0.842714 196.738C-4.35878 237.154 45.0033 247.296 66.9022 247.192C79.5413 247.14 92.7011 246.62 104.977 245.372L110.022 217.804ZM415.974 168.025L418.679 152.317L458.054 143.735L453.841 167.974H473.139L469.498 183.474L450.772 183.422L439.381 245.372C439.381 245.372 401.462 245.112 401.306 245.372L412.645 183.578H398.393L401.306 167.974H415.974V168.025ZM569.42 245.474L588.718 138.011L626.065 139.051L607.755 245.422L569.42 245.474ZM294.103 186.491C289.162 186.491 284.688 187.999 280.735 190.964C276.782 193.981 274.285 198.351 273.297 204.124C272.101 210.834 272.829 215.672 275.482 218.636C278.186 221.601 282.036 223.11 287.133 223.11C290.566 223.11 294.103 222.485 296.704 221.185C299.929 219.468 302.165 217.7 304.09 214.839C306.171 211.874 307.523 208.545 308.251 204.696C309.344 198.61 308.407 194.086 305.598 191.068C302.842 188.051 299.044 186.491 294.103 186.491ZM225.547 272.055L243.909 168.858H276.99L274.441 182.017C277.303 178.064 281.88 174.839 288.226 172.238C294.623 169.638 301.801 167.713 309.604 167.713C318.238 167.713 323.544 168.181 329.994 171.51C336.391 174.891 340.917 179.781 343.309 186.126C345.806 192.368 346.326 199.442 344.974 207.088C342.737 219.832 336.547 229.819 326.353 237.205C316.262 244.591 307.159 246.516 294.207 246.568C289.63 246.568 285.781 246.1 282.608 245.32C279.487 244.487 276.99 243.499 275.118 242.303C273.297 241.106 271.373 239.39 268.928 236.685L262.79 272.055H225.547ZM909.113 195.958C908.905 189.768 905.784 185.555 899.386 185.555C883.937 185.555 867.501 215.828 864.692 227.999C890.023 228.051 909.737 212.967 909.113 195.958ZM912.442 243.395L915.406 245.424C907.864 260.769 892.52 273.096 874.523 273.096C859.802 273.096 847.683 263.265 847.059 244.852C845.863 211.822 876.811 181.186 902.143 181.186C913.014 181.186 923.105 185.919 923.521 197.622C924.457 223.89 887.578 231.9 863.287 232.472C862.507 235.229 862.195 237.986 862.351 242.147C862.767 253.018 869.321 262.173 882.949 262.173C894.705 262.173 906.46 252.706 912.442 243.395Z" fill="white"/>
<path d="M761.39 195.125C763.991 194.761 768.204 194.293 770.025 194.293C772.781 194.293 775.382 194.813 775.538 197.57C775.59 199.183 772.677 210.886 772.053 213.591L766.175 239.494C763.783 250.105 761.234 261.184 758.945 269.974H774.03L782.508 228.935C808.36 201.991 818.346 193.2 824.432 193.2C827.189 193.2 829.061 194.657 829.218 197.934C829.374 202.667 826.409 213.434 825.42 216.555L816.786 246.464C814.81 253.174 813.353 259.259 813.509 263.577C813.769 270.13 817.722 273.044 823.652 273.044C834.679 273.044 842.689 261.548 849.66 250.261L847.631 246.568C844.822 251.093 838.268 261.028 833.119 261.028C831.506 261.028 829.946 259.935 829.894 257.231C829.738 253.746 831.194 248.492 832.234 245.007L841.857 209.949C844.458 200.274 845.654 194.085 845.602 190.756C845.342 184.202 841.545 181.133 835.667 181.133C825.733 181.133 812.573 188.415 784.641 220.508H784.225L787.762 204.852C789.686 196.27 791.559 187.323 793.327 181.133C783.652 184.618 769.817 188.519 761.286 190.184L761.39 195.125Z" fill="white"/>
</g>
<defs>
<clipPath id="clip0_23_2">
<rect width="924" height="332" fill="white"/>
</clipPath>
</defs>
</svg>
