<svg width="34" height="27" viewBox="0 0 34 27" fill="none" xmlns="http://www.w3.org/2000/svg">
<path d="M11.314 16.4986C9.61475 16.4986 8.22925 14.9531 8.22925 13.0625C8.22925 11.1703 9.58044 9.62475 11.3156 9.62475C13.0311 9.62475 14.4362 11.1703 14.4019 13.0625C14.4019 14.9531 13.0311 16.4986 11.314 16.4986ZM22.7084 16.497C21.0092 16.497 19.6204 14.9515 19.6204 13.0609C19.6204 11.1686 20.9749 9.62311 22.7084 9.62311C24.4239 9.62311 25.829 11.1686 25.7963 13.0609C25.7963 14.9515 24.4419 16.497 22.7084 16.497ZM13.9363 0.920771L13.433 0L12.3972 0.17336C10.0496 0.565195 7.76493 1.26922 5.60367 2.26676L5.23115 2.43849L4.99915 2.78194C0.729915 9.08341 -0.44155 15.29 0.138464 21.3854L0.202184 22.0511L0.741352 22.4436C3.2529 24.2882 6.058 25.6943 9.03801 26.6026L10.3287 26.9984L12.1472 22.5564C15.2678 23.3284 18.7316 23.3284 21.8506 22.5564L23.6593 27L24.95 26.6042C27.9324 25.698 30.7391 24.2905 33.2499 22.4419L33.7842 22.0527L33.8495 21.3952C34.5619 14.33 32.7108 8.17572 29.0166 2.77703L28.7846 2.43685L28.4121 2.26676C26.2514 1.27376 23.9695 0.569909 21.6251 0.17336L20.6154 0.00490645L20.1024 0.891332C19.9586 1.13665 19.8132 1.41468 19.6727 1.69762C17.9003 1.51435 16.1138 1.51435 14.3415 1.69762C14.2026 1.41959 14.0637 1.15137 13.9363 0.920771ZM8.36486 21.0191C8.68673 21.2055 9.02657 21.3887 9.36151 21.5555L8.62791 23.348C6.64374 22.624 4.76124 21.6466 3.0271 20.4401C2.65948 15.308 3.70188 10.1285 7.21627 4.78866C8.6994 4.13482 10.2454 3.63449 11.8302 3.29547C11.9283 3.49991 12.0198 3.70107 12.0949 3.8777L12.541 4.92931L13.6716 4.76413C15.8872 4.43921 18.1384 4.43921 20.354 4.76413L21.4814 4.92768L21.9258 3.8777C22.0026 3.69453 22.0924 3.495 22.1872 3.29547C23.7834 3.63892 25.3291 4.14592 26.8077 4.79193C29.8711 9.40396 31.4168 14.5492 30.9674 20.4385C29.2335 21.6477 27.3496 22.6257 25.3634 23.348L24.6363 21.5571C24.9729 21.3903 25.3127 21.2072 25.6379 21.0191C26.4384 20.5579 27.2995 19.9822 27.8484 19.4327L25.7571 17.3393C25.4908 17.6075 24.9026 18.0262 24.1609 18.4547C23.4354 18.8733 22.7149 19.2119 22.2542 19.364C18.9816 20.4483 15.0195 20.4483 11.7453 19.364C11.2862 19.2119 10.5656 18.8733 9.84022 18.4547C9.09846 18.0278 8.51027 17.6075 8.24232 17.3393L6.15101 19.4327C6.70161 19.9822 7.56428 20.5579 8.36486 21.0191Z" fill="white"/>
</svg>
