<svg width="29" height="29" viewBox="0 0 29 29" fill="none" xmlns="http://www.w3.org/2000/svg">
<path d="M21.25 1H7.75C4.02208 1 1 4.02208 1 7.75V21.25C1 24.9779 4.02208 28 7.75 28H21.25C24.9779 28 28 24.9779 28 21.25V7.75C28 4.02208 24.9779 1 21.25 1Z" stroke="white" stroke-width="2" stroke-linecap="round" stroke-linejoin="round"/>
<path d="M21.925 7.07495H21.9385M19.9 13.6495C20.0666 14.773 19.8747 15.9204 19.3516 16.9286C18.8284 17.9368 18.0007 18.7544 16.9862 19.265C15.9716 19.7757 14.8219 19.9534 13.7005 19.773C12.5791 19.5925 11.5432 19.0631 10.74 18.2599C9.93687 17.4568 9.40742 16.4208 9.22697 15.2994C9.04653 14.178 9.22427 13.0283 9.73492 12.0138C10.2456 10.9992 11.0631 10.1715 12.0713 9.64838C13.0795 9.12525 14.227 8.93335 15.3505 9.09995C16.4965 9.2699 17.5575 9.80393 18.3768 10.6232C19.196 11.4424 19.73 12.5034 19.9 13.6495Z" stroke="white" stroke-width="2" stroke-linecap="round" stroke-linejoin="round"/>
</svg>
