<svg width="40" height="40" viewBox="0 0 40 40" fill="none" xmlns="http://www.w3.org/2000/svg">
<path d="M8.8002 0C8.5127 0 8.24082 0.15 8.1002 0.4C7.95645 0.65 7.9752 0.953125 8.1252 1.2L14.1252 11.25L19.0752 3.025L17.4752 0.4C17.3314 0.159375 17.0814 0 16.8002 0H8.8002ZM23.2002 0C22.9189 0 22.6689 0.159375 22.5252 0.4L20.0002 4.6L16.5252 10.4H16.5002L14.4002 13.6V15.7C10.1439 17.7813 7.2002 22.15 7.2002 27.2C7.2002 34.2563 12.9439 40 20.0002 40C27.0564 40 32.8002 34.2563 32.8002 27.2C32.8002 22.15 29.8564 17.7813 25.6002 15.7V12.55C25.6064 12.3469 25.5346 12.15 25.4002 12L31.8752 1.2C32.0252 0.953125 32.0439 0.65 31.9002 0.4C31.7564 0.15 31.4877 0 31.2002 0H23.2002ZM16.0002 13.6H24.0002V15.05C22.7408 14.6344 21.4002 14.4 20.0002 14.4C18.6002 14.4 17.2596 14.6344 16.0002 15.05V13.6ZM20.0002 17.6C25.2939 17.6 29.6002 21.9063 29.6002 27.2C29.6002 32.4938 25.2939 36.8 20.0002 36.8C14.7064 36.8 10.4002 32.4938 10.4002 27.2C10.4002 21.9063 14.7064 17.6 20.0002 17.6ZM20.0002 19.2C15.5877 19.2 12.0002 22.7875 12.0002 27.2C12.0002 31.6125 15.5877 35.2 20.0002 35.2C24.4127 35.2 28.0002 31.6125 28.0002 27.2C28.0002 22.7875 24.4127 19.2 20.0002 19.2ZM17.6002 23.2H22.4002V24.8H20.8002V30.4H22.4002V32H17.6002V30.4H19.2002V24.8H17.6002V23.2Z" fill="#FDB532"/>
</svg>
