<svg width="40" height="40" viewBox="0 0 40 40" fill="none" xmlns="http://www.w3.org/2000/svg">
<path d="M10.4002 1.6001C10.1127 1.6001 9.84395 1.7501 9.7002 2.0001C9.55645 2.2501 9.55645 2.55322 9.7002 2.8001L13.6502 9.5501C14.1002 8.96885 14.7033 8.5376 15.4002 8.2751L19.0752 1.9751C18.9283 1.74697 18.6752 1.6001 18.4002 1.6001H10.4002ZM21.6002 1.6001C21.3158 1.6001 21.0439 1.75322 20.9002 2.0001L16.4502 9.6251C15.3002 9.8001 14.4002 10.8063 14.4002 12.0001V14.9001C10.1439 16.9813 7.2002 21.3501 7.2002 26.4001C7.2002 33.4564 12.9439 39.2001 20.0002 39.2001C27.0564 39.2001 32.8002 33.4564 32.8002 26.4001C32.8002 21.3501 29.8564 16.9813 25.6002 14.9001V11.7501C25.6064 11.547 25.5346 11.3501 25.4002 11.2001L30.3002 2.8001C30.4439 2.55322 30.4439 2.2501 30.3002 2.0001C30.1564 1.7501 29.8877 1.6001 29.6002 1.6001H21.6002ZM16.0002 12.8001H24.0002V14.2501C22.7408 13.8345 21.4002 13.6001 20.0002 13.6001C18.6002 13.6001 17.2596 13.8345 16.0002 14.2501V12.8001ZM20.0002 16.8001C25.2939 16.8001 29.6002 21.1063 29.6002 26.4001C29.6002 31.6939 25.2939 36.0001 20.0002 36.0001C14.7064 36.0001 10.4002 31.6939 10.4002 26.4001C10.4002 21.1063 14.7064 16.8001 20.0002 16.8001ZM20.0002 18.4001C15.5877 18.4001 12.0002 21.9876 12.0002 26.4001C12.0002 30.8126 15.5877 34.4001 20.0002 34.4001C24.4127 34.4001 28.0002 30.8126 28.0002 26.4001C28.0002 21.9876 24.4127 18.4001 20.0002 18.4001ZM14.8002 22.4001H25.2002V24.0001H24.0002V28.8001H25.2002V30.4001H14.8002V28.8001H16.0002V24.0001H14.8002V22.4001ZM17.6002 24.0001V28.8001H19.2002V24.0001H17.6002ZM20.8002 24.0001V28.8001H22.4002V24.0001H20.8002Z" fill="#FDB532"/>
</svg>
