<svg width="23" height="23" viewBox="0 0 23 23" fill="none" xmlns="http://www.w3.org/2000/svg">
<path d="M11.5001 15.3333C15.205 15.3333 18.2084 12.3299 18.2084 8.62496C18.2084 4.92005 15.205 1.91663 11.5001 1.91663C7.79517 1.91663 4.79175 4.92005 4.79175 8.62496C4.79175 12.3299 7.79517 15.3333 11.5001 15.3333Z" stroke="#FD9739" stroke-width="1.5"/>
<path d="M7.04482 14.375L6.43436 16.6012C5.83252 18.7977 5.53161 19.896 5.93315 20.4968C6.07402 20.7077 6.26282 20.8763 6.48227 20.9885C7.10711 21.3066 8.07311 20.8035 10.0041 19.7973C10.6462 19.4618 10.9682 19.2951 11.3094 19.2587C11.4362 19.2451 11.564 19.2451 11.6908 19.2587C12.032 19.2951 12.353 19.4628 12.9961 19.7973C14.9271 20.8035 15.8931 21.3066 16.5179 20.9885C16.7374 20.8763 16.9262 20.7077 17.0671 20.4968C17.4696 19.896 17.1677 18.7977 16.5659 16.6012L15.9554 14.375" stroke="#FD9739" stroke-width="1.5" stroke-linecap="round"/>
</svg>
