<svg width="27" height="27" viewBox="0 0 27 27" fill="none" xmlns="http://www.w3.org/2000/svg">
<path fill-rule="evenodd" clip-rule="evenodd" d="M9.89918 0C9.1831 0.000162746 8.49641 0.284782 7.99017 0.791246C7.48394 1.29771 7.19963 1.98453 7.1998 2.70061C7.19996 3.4167 7.48458 4.10339 7.99104 4.60962C8.4975 5.11586 9.18433 5.40016 9.90041 5.4H12.6004V2.7C12.5998 1.98411 12.3151 1.29774 11.8089 0.791529C11.3027 0.285322 10.6163 0.000649919 9.90041 0M9.90041 7.20041H2.7C1.98392 7.20041 1.29716 7.48487 0.790812 7.99122C0.284463 8.49757 0 9.18433 0 9.90041C0 10.6165 0.284463 11.3032 0.790812 11.8096C1.29716 12.3159 1.98392 12.6004 2.7 12.6004H9.89918C10.6153 12.6004 11.302 12.3159 11.8084 11.8096C12.3147 11.3032 12.5992 10.6165 12.5992 9.90041C12.5992 9.18433 12.3147 8.49757 11.8084 7.99122C11.302 7.48487 10.6153 7.20041 9.89918 7.20041M27 9.89918C27 9.1831 26.7155 8.49634 26.2092 7.98999C25.7028 7.48365 25.0161 7.19918 24.3 7.19918C23.5839 7.19918 22.8972 7.48365 22.3908 7.98999C21.8845 8.49634 21.6 9.1831 21.6 9.89918V12.5992H24.3C25.0161 12.5992 25.7028 12.3147 26.2092 11.8084C26.7155 11.302 27 10.6153 27 9.89918ZM19.7996 9.89918V2.7C19.7996 1.98392 19.5151 1.29716 19.0088 0.790812C18.5024 0.284463 17.8157 0 17.0996 0C16.3835 0 15.6968 0.284463 15.1904 0.790812C14.6841 1.29716 14.3996 1.98392 14.3996 2.7V9.89918C14.3996 10.6153 14.6841 11.302 15.1904 11.8084C15.6968 12.3147 16.3835 12.5992 17.0996 12.5992C17.8157 12.5992 18.5024 12.3147 19.0088 11.8084C19.5151 11.302 19.7996 10.6153 19.7996 9.89918ZM17.0996 27C17.8157 27 18.5024 26.7155 19.0088 26.2092C19.5151 25.7028 19.7996 25.0161 19.7996 24.3C19.7996 23.5839 19.5151 22.8972 19.0088 22.3908C18.5024 21.8845 17.8157 21.6 17.0996 21.6H14.3996V24.3C14.3999 25.016 14.6845 25.7026 15.1908 26.2088C15.697 26.7151 16.3836 26.9997 17.0996 27ZM17.0996 19.7984H24.3C25.0161 19.7984 25.7028 19.5139 26.2092 19.0076C26.7155 18.5012 27 17.8144 27 17.0984C27 16.3823 26.7155 15.6955 26.2092 15.1892C25.7028 14.6828 25.0161 14.3984 24.3 14.3984H17.1008C16.3847 14.3982 15.6979 14.6825 15.1915 15.1887C14.685 15.695 14.4004 16.3817 14.4002 17.0978C14.4 17.8138 14.6844 18.5007 15.1906 19.0071C15.6968 19.5136 16.3835 19.7982 17.0996 19.7984ZM0 17.0996C0 17.8157 0.284463 18.5024 0.790812 19.0088C1.29716 19.5151 1.98392 19.7996 2.7 19.7996C3.41608 19.7996 4.10284 19.5151 4.60919 19.0088C5.11554 18.5024 5.4 17.8157 5.4 17.0996V14.3996H2.7C1.98392 14.3996 1.29716 14.6841 0.790812 15.1904C0.284463 15.6968 0 16.3835 0 17.0996ZM7.20041 17.0996V24.2988C7.20025 25.0149 7.48455 25.7017 7.99079 26.2081C8.49702 26.7146 9.18371 26.9992 9.8998 26.9994C10.6159 26.9996 11.3027 26.7152 11.8092 26.209C12.3156 25.7028 12.6002 25.0161 12.6004 24.3V17.1008C12.6006 16.3847 12.3163 15.6979 11.81 15.1915C11.3038 14.685 10.6171 14.4004 9.90102 14.4002C9.18494 14.4 8.49812 14.6844 7.99165 15.1906C7.48519 15.6968 7.20057 16.3835 7.20041 17.0996Z" fill="white"/>
</svg>
