<svg width="40" height="40" viewBox="0 0 40 40" fill="none" xmlns="http://www.w3.org/2000/svg">
<g clip-path="url(#clip0_354_1344)">
<path d="M21.6748 0.000112661C21.5311 -0.0155123 21.3873 0.0094877 21.2498 0.0751127C20.9061 0.243863 12.7998 4.29386 12.7998 11.3501C12.7998 12.9876 13.3404 14.2657 14.0998 15.2251C14.1967 15.2064 14.2967 15.2001 14.3998 15.2001H16.3498C15.3592 14.5282 14.3998 13.3407 14.3998 11.3501C14.3998 6.85324 18.5217 3.62824 20.6748 2.25011C20.7029 3.57824 21.0842 4.79699 21.7748 5.62511C21.9186 5.79699 22.1498 5.91574 22.3748 5.92511C22.5998 5.93449 22.8154 5.83449 22.9748 5.67511C23.0686 5.58136 23.1592 5.48136 23.2748 5.37511C23.3998 5.96886 23.6436 6.51886 23.8748 7.07511C24.3123 8.12511 24.7998 9.29699 24.7998 11.3501C24.7998 12.6189 24.3123 14.2751 23.3998 15.2001H25.3998C26.0498 14.0814 26.3998 12.6876 26.3998 11.3501C26.3998 8.97511 25.8248 7.57824 25.3498 6.45011C24.9842 5.57511 24.7123 4.93136 24.7998 4.07511C24.8248 3.81574 24.7217 3.57199 24.5248 3.40011C24.3279 3.22824 24.0561 3.16261 23.7998 3.22511C23.3373 3.34074 22.9467 3.60011 22.5998 3.87511C22.2842 3.07199 22.1779 1.99074 22.3748 0.950113C22.4311 0.653237 22.3154 0.359488 22.0748 0.175113C21.9529 0.0844879 21.8186 0.0157376 21.6748 0.000112661ZM20.0748 6.25011C20.0748 6.25011 16.5498 8.00011 16.5498 11.6001C16.5498 13.0439 17.2092 14.3001 17.8498 15.2001H22.4748C22.8498 14.5814 23.1998 13.8532 23.1998 13.2751C23.1998 11.5157 22.0811 10.1564 21.5998 8.87511C20.7998 9.67511 20.6498 12.4001 20.6498 12.4001C20.6498 12.4001 18.6342 10.7314 20.0748 6.25011ZM14.3998 16.0001C14.1436 16.0001 13.8998 16.1157 13.7498 16.3251C13.5998 16.5345 13.5686 16.8064 13.6498 17.0501L15.6998 23.2001H24.2998L26.3498 17.0501C26.4311 16.8064 26.3998 16.5345 26.2498 16.3251C26.0998 16.1157 25.8561 16.0001 25.5998 16.0001H14.3998ZM16.0998 24.8001L18.0748 39.3001C18.1279 39.697 18.4748 40.0001 18.8748 40.0001H21.1998C21.6029 40.0001 21.9467 39.697 21.9998 39.3001L23.8998 24.8001H16.0998Z" fill="#FDB532"/>
</g>
<defs>
<clipPath id="clip0_354_1344">
<rect width="40" height="40" fill="white"/>
</clipPath>
</defs>
</svg>
